PathFileType	3	(X/Y/Z)	C:\Users\koon_\Desktop\
DataRate	CameraRate	NumFrames	NumMarkers	Units	OrigDataRate	OrigDataStartFrame	OrigNumFrames
100.0	100.0	7	27	mm	100.0	1880	3007	
Frame#	Time	get:LFHD			get:RFHD			get:LBHD			get:RBHD			get:C7			get:T10			get:CLAV			get:STRN			get:RBAK			get:LSHO			get:LUPA			get:LELB			get:LFRA			get:LWRA			get:LWRB			get:LFIN			get:RSHO			get:RUPA			get:RELB			get:RFRA			get:RWRA			get:RWRB			get:RFIN			get:LASI			get:RASI			get:LPSI			get:RPSI			
		X1	Y1	Z1	X2	Y2	Z2	X3	Y3	Z3	X4	Y4	Z4	X5	Y5	Z5	X6	Y6	Z6	X7	Y7	Z7	X8	Y8	Z8	X9	Y9	Z9	X10	Y10	Z10	X11	Y11	Z11	X12	Y12	Z12	X13	Y13	Z13	X14	Y14	Z14	X15	Y15	Z15	X16	Y16	Z16	X17	Y17	Z17	X18	Y18	Z18	X19	Y19	Z19	X20	Y20	Z20	X21	Y21	Z21	X22	Y22	Z22	X23	Y23	Z23	X24	Y24	Z24	X25	Y25	Z25	X26	Y26	Z26	X27	Y27	Z27	
1880	18.79	46.430698	1567.4677	-203.6758	-106.5595	1529.1027	-206.87207	60.511719	1493.9805	-304.15076	-61.603081	1463.6251	-328.94601	17.025209	1343.2329	-272.7045	24.016682	1081.1344	-258.84	-3.3117242	1295.4795	-78.543701	12.896541	1119.4784	-2.1279168	-65.237854	1265.2863	-293.42441	165.21254	1359.3813	-153.51613	222.11188	1219.7169	-97.543152	244.19209	1035.5082	-85.187851	200.05804	947.10791	-6.2598124	177.16995	850.59491	11.220036	244.59489	845.63708	-6.8835759	224.92467	770.76361	42.073887	-149.42943	1337.6439	-198.73235	-219.99454	1126.6473	-127.81991	-223.97246	1013.5988	-153.79936	-219.07961	962.11682	-61.31797	-199.08006	811.42468	-13.177371	-242.07025	804.75891	-75.561317	-244.18282	745.3114	-4.3857627	140.93896	929.59613	-26.359653	-136.15129	921.97919	-32.342354	62.484406	937.18622	-235.25659	-50.381161	930.20911	-233.96906
1881	18.8	47.538853	1568.5989	-198.7299	-105.6478	1531.3223	-202.26323	60.996864	1496.7039	-300.53482	-61.323277	1467.4817	-325.50272	16.903095	1344.8523	-271.16763	23.599714	1082.4619	-259.44235	-3.2197857	1295.6309	-77.478203	12.781013	1119.0093	-2.5168967	-65.522232	1267.1008	-292.57581	165.29111	1359.6595	-152.31088	222.12146	1219.5991	-97.355286	244.0865	1035.2302	-86.148346	199.80473	946.65692	-7.5114217	176.95543	850.1853	10.56861	244.209	845.1037	-8.4210701	224.4366	770.16064	40.268135	-149.42883	1338.7203	-197.06184	-220.0414	1127.3662	-127.33202	-224.27982	1014.4503	-153.97151	-218.98947	962.47693	-61.684643	-198.86778	811.48315	-14.75094	-242.27452	805.19287	-76.595345	-243.93141	745.46533	-5.6494784	140.849	929.79633	-27.719715	-136.27386	922.11462	-33.621464	62.179897	937.68982	-236.47142	-50.571629	930.81335	-235.61763
1882	18.81	48.832283	1569.6382	-193.74492	-104.66917	1533.5476	-197.61348	61.49202	1499.4601	-296.82803	-61.02861	1471.5704	-322.13879	16.662838	1346.4369	-269.57104	23.194807	1083.7708	-260.00528	-3.1868553	1295.7524	-76.226738	12.693852	1118.5841	-2.8274117	-65.808067	1268.9104	-291.59381	165.31624	1359.9094	-150.92014	222.13045	1219.4521	-97.143425	244.00986	1035.0072	-87.058487	199.84015	946.24182	-8.5218849	176.61044	849.74365	9.1039248	243.84995	844.51154	-10.086739	223.99162	769.50256	38.477596	-149.4902	1339.8235	-195.46223	-220.03732	1128.095	-126.75655	-224.55617	1015.2707	-153.87752	-218.93182	962.85962	-62.038246	-198.72597	811.66864	-15.774287	-242.47784	805.66632	-77.716034	-243.84547	745.59265	-7.0617862	140.69392	929.93994	-29.184607	-136.40498	922.18109	-34.999706	61.816444	938.19214	-237.7361	-50.806107	931.06293	-236.75137
1883	18.82	50.168613	1570.543	-188.68425	-103.60726	1535.806	-192.82909	62.064049	1502.2032	-293.06119	-60.68391	1475.7614	-318.67062	16.533693	1347.9489	-268.02686	22.772366	1085.1094	-260.51828	-3.1136999	1295.9089	-75.08342	12.536302	1118.1267	-3.243583	-66.153305	1270.7255	-290.66586	165.38756	1360.135	-149.67201	222.10101	1219.286	-97.001495	243.92336	1034.7776	-88.02742	199.57579	945.77087	-9.8192921	176.3287	849.29694	7.6183801	243.43869	843.93634	-11.787814	223.50172	768.85541	36.661903	-149.56227	1340.9077	-193.68353	-220.00647	1128.8478	-126.28432	-224.86848	1016.2313	-154.16191	-218.84467	963.25317	-62.432804	-198.58963	811.78241	-17.313297	-242.70071	806.20599	-78.852928	-243.73727	745.76733	-8.3791218	140.54286	930.06293	-30.657616	-136.54527	922.30524	-36.309719	61.43906	938.65936	-238.91989	-51.106911	931.27063	-237.91867
1884	18.83	51.579647	1571.2856	-183.50191	-102.50824	1537.9967	-187.8965	62.575787	1504.9476	-289.28174	-60.419888	1479.9465	-314.91809	16.351486	1349.3982	-266.49283	22.332848	1086.441	-260.99323	-3.0516942	1296.007	-73.905327	12.433174	1117.6774	-3.4588809	-66.475815	1272.3994	-289.49417	165.39548	1360.3363	-148.33687	222.11668	1219.1398	-96.790169	243.72342	1034.5205	-89.089348	199.4985	945.3139	-11.101127	175.99155	848.86243	6.0906491	243.14211	843.4342	-13.291693	223.13052	768.24573	34.787312	-149.60077	1342.0161	-191.95096	-220.08626	1129.6011	-125.74702	-225.12578	1017.1447	-154.28329	-218.77495	963.65088	-62.828781	-198.48123	811.99249	-18.354792	-242.86487	806.68262	-79.883598	-243.61548	746.0155	-9.7162361	140.44438	930.24274	-32.09367	-136.70732	922.38739	-37.630341	60.998917	939.17352	-240.13481	-51.311184	931.6676	-239.39055
1885	18.84	53.058666	1571.9617	-178.31914	-101.39508	1540.0895	-182.9111	63.135155	1507.6501	-285.44308	-60.19141	1484.201	-311.11887	16.125942	1350.7877	-265.01407	21.815252	1087.7429	-261.44952	-2.9754953	1296.0682	-72.744209	12.291661	1117.2773	-3.70929	-66.898109	1274.1968	-288.56558	165.43021	1360.528	-147.11833	222.09789	1218.9871	-96.60733	243.69279	1034.3461	-89.936905	199.46588	944.84009	-12.234569	175.64734	848.20129	4.5263147	242.78499	842.87708	-15.037256	222.82846	767.62756	32.962288	-149.69388	1343.1075	-190.22528	-220.06837	1130.3408	-125.18297	-225.46959	1018.0157	-154.27357	-218.67134	964.05444	-63.217937	-198.34492	812.2132	-19.588064	-243.0685	807.23322	-80.989876	-243.52786	746.23859	-11.027304	140.27582	930.45337	-33.557686	-136.8661	922.47015	-39.016705	60.583733	939.7467	-241.41991	-51.558277	932.01959	-240.81445
1886	18.85	54.555805	1572.5436	-173.14552	-100.17504	1542.1006	-177.74713	63.690773	1510.3231	-281.57767	-59.943913	1488.4406	-307.42505	15.887237	1352.1964	-263.54041	21.27577	1089.0135	-261.88373	-2.9149959	1296.094	-71.639244	12.105216	1116.8702	-3.8549283	-67.250725	1275.918	-287.51956	165.46342	1360.6671	-145.84184	222.05731	1218.8269	-96.403549	243.57565	1034.0874	-91.007973	199.26883	944.27063	-13.651597	175.16704	847.68152	2.3410156	242.55821	842.30188	-16.695877	222.51352	767.01733	31.145613	-149.73145	1344.1748	-188.46684	-220.15857	1131.0953	-124.67824	-225.82823	1018.8683	-154.24057	-218.63013	964.48138	-63.66188	-198.17001	812.42365	-20.91773	-243.24669	807.70953	-81.990273	-243.46506	746.49286	-12.342401	140.12614	930.62329	-35.013744	-136.95937	922.61041	-40.271935	60.188316	940.34802	-242.7012	-51.51329	932.80133	-242.78822
